<svg version="1.1" xmlns="http://www.w3.org/2000/svg" xmlns:xlink="http://www.w3.org/1999/xlink" width="379" height="427"><defs/><g><g transform="translate(-158,-86) scale(1,1)"><rect fill="#C0C0C0" stroke="none" x="175" y="103" width="359" height="407" opacity="0.2"/></g><g transform="translate(-158,-86) scale(1,1)"><rect fill="#ffffff" stroke="none" x="168" y="96" width="359" height="407"/></g><g transform="translate(-158,-86) scale(1,1)"><path fill="none" stroke="#000000" d="M 168 96 L 527 96 L 527 503 L 168 503 L 168 96 Z Z" stroke-miterlimit="10"/></g><g transform="translate(-158,-86) scale(1,1)"><path fill="none" stroke="#000000" d="M 168 121 L 527 121" stroke-miterlimit="10"/></g><g transform="translate(-158,-86) scale(1,1)"><path fill="none" stroke="#000000" d="M 168 144 L 527 144" stroke-miterlimit="10"/></g><g transform="translate(-158,-86) scale(1,1)"><g><path fill="none" stroke="none"/><text fill="#000000" stroke="none" font-family="Helvetica" font-size="13px" font-style="normal" font-weight="bold" text-decoration="none" x="324.016845703125" y="115.5">Medidor</text></g></g><g transform="translate(-158,-86) scale(1,1)"><g><path fill="none" stroke="none"/><text fill="#000000" stroke="none" font-family="Helvetica" font-size="13px" font-style="normal" font-weight="normal" text-decoration="none" x="173" y="138.5">#Id Number</text></g></g></g></svg>